<svg xmlns="http://www.w3.org/2000/svg" version="1.1" xmlns:xlink="http://www.w3.org/1999/xlink" xmlns:svgjs="http://svgjs.dev/svgjs" width="100%" height="100%" viewBox="0 0 1000 600"><rect width="1000" height="600" x="0" y="0" fill="#f4efea"/><g><rect width="333.3333333333333" height="333.3333333333333" rx="13.333333333333334" ry="13.333333333333334" y="127.30652100859919" fill="#7d141d" transform="matrix(1.1895210203394768,0,0,1.1895210203394766,0,-49.687297271851094)" x="105.08428955078125"/><path d="M211.48466198218875 368.97319916298204L211.48466198218875 362.24280487315093L226.67194301011202 362.24280487315093Q232.34888428066523 362.24280487315093 232.34888428066523 356.5366010187289L232.34888428066523 356.5366010187289L232.34888428066523 231.38052981173882Q232.34888428066523 228.45427142485573 230.97354283883016 227.07892998302066Q229.62746398086392 225.70358854118564 226.67194301011202 225.70358854118564L226.67194301011202 225.70358854118564L211.48466198218875 225.70358854118564L211.48466198218875 218.9731942513545L280.19320890620384 218.9731942513545Q292.6005444665882 218.9731942513545 303.45696308192447 223.5966825026298Q314.31338169726075 228.22017075390508 320.8389379000101 236.35516906944008Q327.3644941027594 244.46090480110627 327.3644941027594 254.79059690680361L327.3644941027594 254.79059690680361Q327.3644941027594 269.1000004186619 317.6785788421763 278.37623950508134Q307.99266358159326 287.65247859150077 295.1463892631765 290.3738988913021L295.1463892631765 290.3738988913021L295.1463892631765 291.22251382349816Q303.7788515044816 291.86629066861246 312.3235259941803 296.60682925536304Q320.8389379000101 301.34736784211367 326.4280914189568 309.57015390925517Q332.01724493790346 317.7636773925278 332.01724493790346 328.0933694982252L332.01724493790346 328.0933694982252Q332.01724493790346 340.939643816642 325.25758806420356 350.2158829030614Q318.5271937743724 359.4921219894808 307.2610989848725 364.2326605762314Q295.9950041953726 368.97319916298204 282.5049530318415 368.97319916298204L282.5049530318415 368.97319916298204L211.48466198218875 368.97319916298204ZM251.74997738570016 287.2135398334683L279.34459397400775 287.2135398334683Q296.4046803695362 287.2135398334683 302.6083481497284 278.49328984055666Q308.84127851378935 269.7437772637762 308.84127851378935 254.79059690680361L308.84127851378935 254.79059690680361Q308.84127851378935 242.1491606754686 300.8233305337297 233.92637460832714Q292.8346451375388 225.70358854118564 281.01256125453114 225.70358854118564L281.01256125453114 225.70358854118564L257.42691865625335 225.70358854118564Q254.47139768550142 225.70358854118564 253.09605624366637 227.07892998302066Q251.74997738570016 228.45427142485573 251.74997738570016 231.38052981173882L251.74997738570016 231.38052981173882L251.74997738570016 287.2135398334683ZM257.42691865625335 362.24280487315093L280.19320890620384 362.24280487315093Q293.03948322462065 362.24280487315093 301.3500570433687 354.54674531564837Q309.6898934459855 346.8506857581458 309.6898934459855 328.0933694982252L309.6898934459855 328.0933694982252Q309.6898934459855 309.33605323830454 301.3500570433687 301.6692562646708Q293.03948322462065 293.97319670716826 280.19320890620384 293.97319670716826L280.19320890620384 293.97319670716826L251.74997738570016 293.97319670716826L251.74997738570016 356.5366010187289Q251.74997738570016 362.24280487315093 257.42691865625335 362.24280487315093L257.42691865625335 362.24280487315093Z " fill="#f4efea" transform="matrix(1.1895210203394768,0,0,1.1895210203394766,0,-49.687297271851094)"/><path d="M521.7509546374549 368.9731915335875L521.7509546374549 363.82438216566015L530.7390496034322 363.82438216566015Q533.2985733354656 363.82438216566015 534.3700018744562 362.7529536266694Q535.4414304134468 361.6815250876788 535.4414304134468 359.1220013556455L535.4414304134468 359.1220013556455L535.4414304134468 281.11605133635254Q535.4414304134468 278.5565276043193 534.3700018744562 277.4850990653286Q533.2985733354656 276.4136705263379 530.7390496034322 276.4136705263379L530.7390496034322 276.4136705263379L521.7509546374549 276.4136705263379L521.7509546374549 271.26486115841055L550.887858517229 271.26486115841055L550.887858517229 288.82438443631315L551.7509537291937 289.0327177633392Q556.6616678662342 278.7648609313452 563.9533343121429 273.7350991788612Q571.2450007580517 268.6755755225164 580.0247623970031 268.6755755225164L580.0247623970031 268.6755755225164Q595.6795238278112 268.6755755225164 602.1973807733377 278.3184323734324Q608.7449996227251 287.9612892243485 608.7449996227251 301.47319357717527L608.7449996227251 301.47319357717527L608.7449996227251 359.1220013556455Q608.7449996227251 361.6815250876788 609.8164281617159 362.7529536266694Q610.8878567007066 363.82438216566015 613.4473804327398 363.82438216566015L613.4473804327398 363.82438216566015L622.465237302578 363.82438216566015L622.465237302578 368.9731915335875L579.6080957429511 368.9731915335875L579.6080957429511 363.82438216566015L588.5961907089284 363.82438216566015Q591.1557144409617 363.82438216566015 592.2271429799523 362.7529536266694Q593.298571518943 361.6815250876788 593.298571518943 359.1220013556455L593.298571518943 359.1220013556455L593.298571518943 297.39581274823854Q593.298571518943 287.9612892243485 589.5485716324756 281.3243846633785Q585.7985717460083 274.68748010240853 576.810476780031 274.68748010240853L576.810476780031 274.68748010240853Q569.3104770070963 274.68748010240853 563.4176200426477 279.9255751819184Q557.5247630781989 285.19343216528927 554.1914298457835 294.3005747467099Q550.887858517229 303.4077173281306 550.887858517229 314.53866937208926L550.887858517229 314.53866937208926L550.887858517229 359.1220013556455Q550.887858517229 361.6815250876788 551.9592870562196 362.7529536266694Q553.0307155952103 363.82438216566015 555.5902393272436 363.82438216566015L555.5902393272436 363.82438216566015L564.6080961970817 363.82438216566015L564.6080961970817 368.9731915335875L521.7509546374549 368.9731915335875ZM647.1080936993634 368.9731915335875Q647.1080936993634 357.1874776046901 651.602141182352 345.61009700281875Q656.0961886653406 334.0327164009473 671.7509500961488 320.7589072790073L671.7509500961488 320.7589072790073L692.3164256639975 303.1993840011047Q702.3759491689655 294.8362890162053 707.6438061523363 284.7470036073765Q712.8819012318462 274.68748010240853 712.8819012318462 261.6220043074945L712.8819012318462 261.6220043074945Q712.8819012318462 244.8958143376957 704.7271395739727 235.788671756275Q696.6021398199603 226.6815291748543 681.6021402740907 226.6815291748543L681.6021402740907 226.6815291748543Q674.7271404822341 226.6815291748543 668.4176168637334 229.89581479182633Q662.1080932452328 233.11010040879833 658.1199981278786 238.37795739216912Q654.1616649143853 243.61605247167907 654.1616649143853 249.1815284936584L654.1616649143853 249.1815284936584Q654.1616649143853 254.33033786158575 656.5128553193927 256.80057588203647Q658.8938076282607 259.2708139024872 662.9414265533367 259.8958138835651L662.9414265533367 259.8958138835651Q669.8164263451933 260.9672424225557 673.119997673748 264.50890898199714Q676.4533309061634 268.05057554143855 676.4533309061634 272.9612896784791L676.4533309061634 272.9612896784791Q676.4533309061634 277.0386705074158 673.5664262316608 279.8362894703359Q670.6795215571581 282.6041465293951 665.5307121892307 282.6041465293951L665.5307121892307 282.6041465293951Q656.7509505502794 282.6041465293951 650.9473792974132 275.6398610259558Q645.1735699484079 268.6755755225164 645.1735699484079 257.33629015153184L645.1735699484079 257.33629015153184Q645.1735699484079 246.41367143459914 650.6199983549438 237.60414789178697Q656.0961886653406 228.82438625283564 665.8580931317001 223.91367211579507Q675.5902356941987 218.97319607489365 687.5842829501221 218.97319607489365L687.5842829501221 218.97319607489365Q701.3045206299748 218.97319607489365 712.2271393469075 224.12200544282103Q723.179519967701 229.27081481074842 729.3699959707582 238.91367166166444Q735.5902338776763 248.55652851258048 735.5902338776763 261.6220043074945L735.5902338776763 261.6220043074945Q735.5902338776763 274.68748010240853 726.393805584673 285.19343216528927Q717.1676153878088 295.69938422817 702.1676158419396 306.4136696180767L702.1676158419396 306.4136696180767L681.155711716178 322.6934310299627Q672.1676167502008 328.91366893688075 667.3461883247427 334.56843067044264Q662.5247598992847 340.25295430786537 662.5247598992847 346.26485888775744L662.5247598992847 346.26485888775744Q662.5247598992847 351.41366825568485 669.1616644602547 351.41366825568485L669.1616644602547 351.41366825568485L709.6676156148742 351.41366825568485Q718.2390439267996 351.41366825568485 721.7807104862409 347.66366836921753Q725.3223770456823 343.91366848275015 726.602138911699 337.03866869089336L726.602138911699 337.03866869089336L728.9533293167062 324.38985955003125L733.6557101267208 324.38985955003125L730.6795197406357 368.9731915335875L647.1080936993634 368.9731915335875Z " fill="#7d141d" transform="matrix(1.1895210203394768,0,0,1.1895210203394766,0,-49.687297271851094)"/></g></svg>