<?xml version="1.0" standalone="no"?>
<!DOCTYPE svg PUBLIC "-//W3C//DTD SVG 20010904//EN"
 "http://www.w3.org/TR/2001/REC-SVG-20010904/DTD/svg10.dtd">
<svg version="1.0" xmlns="http://www.w3.org/2000/svg"
 width="512.000000pt" height="512.000000pt" viewBox="0 0 512.000000 512.000000"
 preserveAspectRatio="xMidYMid meet">

<g transform="translate(0.000000,512.000000) scale(0.100000,-0.100000)"
fill="#000000" stroke="none">
<path d="M2330 5109 c-204 -19 -464 -77 -646 -144 -55 -20 -166 -69 -249 -110
-281 -138 -451 -260 -680 -490 -230 -229 -352 -399 -490 -680 -89 -181 -135
-304 -180 -479 -113 -445 -113 -847 0 -1292 45 -175 91 -298 180 -479 138
-281 260 -451 490 -680 229 -230 399 -352 680 -490 181 -89 304 -135 479 -180
445 -113 847 -113 1292 0 175 45 298 91 479 180 281 138 451 260 680 490 230
229 352 399 490 680 89 181 135 304 180 479 113 445 113 847 0 1292 -45 175
-91 298 -180 479 -138 281 -260 451 -490 680 -229 230 -399 352 -680 490 -181
89 -304 135 -479 180 -297 76 -595 101 -876 74z m670 -849 c432 -33 717 -132
912 -319 170 -161 240 -341 240 -616 1 -123 -3 -151 -26 -228 -14 -49 -38
-112 -52 -140 -66 -131 -197 -263 -328 -329 l-60 -30 80 -42 c112 -58 160 -94
236 -175 158 -167 229 -392 207 -656 -19 -225 -89 -383 -234 -531 -139 -141
-310 -231 -549 -290 -212 -51 -274 -54 -1438 -54 l-1078 0 0 370 0 370 175 0
175 0 -2 967 -3 968 -172 3 -173 2 0 370 0 370 978 0 c569 0 1033 -4 1112 -10z"/>
<path d="M2350 3219 l0 -331 208 5 c230 5 276 14 358 70 31 21 58 51 78 87 30
53 31 60 31 170 0 100 -3 121 -22 156 -72 135 -186 174 -505 174 l-148 0 0
-331z"/>
<path d="M2350 1930 l0 -360 203 0 c112 0 230 5 262 11 117 21 198 81 244 179
23 49 26 67 26 170 0 110 -2 119 -33 182 -33 67 -65 99 -137 136 -65 33 -145
42 -362 42 l-203 0 0 -360z"/>
</g>
</svg>
